<svg width="415" height="670" viewBox="0 0 415 670" fill="none" xmlns="http://www.w3.org/2000/svg">
<line x1="255.758" y1="205.846" x2="334.422" y2="529.422" stroke="url(#paint0_linear_181_17)" stroke-width="4" stroke-linecap="round"/>
<line x1="81.0836" y1="287.418" x2="87.9342" y2="315.598" stroke="url(#paint1_linear_181_17)" stroke-width="8" stroke-linecap="round"/>
<line x1="168.069" y1="226.135" x2="180.353" y2="276.664" stroke="#31983C" stroke-width="4" stroke-linecap="round"/>
<line x1="197.307" y1="36.9607" x2="219.985" y2="130.244" stroke="#31983C" stroke-width="4" stroke-linecap="round"/>
<line x1="143.789" y1="342.155" x2="187.727" y2="522.89" stroke="url(#paint2_linear_181_17)" stroke-width="8" stroke-linecap="round"/>
<line x1="48.981" y1="57.5834" x2="92.9197" y2="238.319" stroke="url(#paint3_linear_181_17)" stroke-width="8" stroke-linecap="round"/>
<line x1="94.8428" y1="92.1411" x2="113.977" y2="170.849" stroke="#BA61C9" stroke-width="3" stroke-linecap="round"/>
<line x1="241.434" y1="394.146" x2="260.568" y2="472.854" stroke="#BA61C9" stroke-width="3" stroke-linecap="round"/>
<line x1="129.326" y1="589.148" x2="148.461" y2="667.856" stroke="#BA61C9" stroke-width="3" stroke-linecap="round"/>
<line x1="273.954" y1="18.2382" x2="328.759" y2="243.672" stroke="url(#paint4_linear_181_17)" stroke-width="4" stroke-linecap="round"/>
<defs>
<linearGradient id="paint0_linear_181_17" x1="307.092" y1="349.28" x2="155.09" y2="58.4558" gradientUnits="userSpaceOnUse">
<stop stop-color="#764E32"/>
<stop offset="1" stop-color="#CFC932" stop-opacity="0.71"/>
</linearGradient>
<linearGradient id="paint1_linear_181_17" x1="115.846" y1="349.977" x2="46.3435" y2="258.815" gradientUnits="userSpaceOnUse">
<stop stop-color="#517038"/>
<stop offset="1" stop-color="#8BE644"/>
</linearGradient>
<linearGradient id="paint2_linear_181_17" x1="161.87" y1="433.468" x2="94.4776" y2="279.016" gradientUnits="userSpaceOnUse">
<stop stop-color="#9A9A9A"/>
<stop offset="1" stop-color="#923232"/>
</linearGradient>
<linearGradient id="paint3_linear_181_17" x1="67.0628" y1="148.896" x2="-0.329943" y2="-5.55483" gradientUnits="userSpaceOnUse">
<stop stop-color="#9A9A9A"/>
<stop offset="1" stop-color="#923232"/>
</linearGradient>
<linearGradient id="paint4_linear_181_17" x1="305.738" y1="81.2429" x2="271.179" y2="-1.28387" gradientUnits="userSpaceOnUse">
<stop stop-color="#528279"/>
<stop offset="1" stop-color="#2B4660"/>
</linearGradient>
</defs>
</svg>
