<svg width="20" height="20" viewBox="0 0 20 20" fill="none" xmlns="http://www.w3.org/2000/svg">
<g clip-path="url(#clip0_90_87)">
<path fill-rule="evenodd" clip-rule="evenodd" d="M0.82959 2.35437C0.82959 1.94997 0.990235 1.56214 1.27619 1.27619C1.56214 0.990237 1.94997 0.829592 2.35436 0.829592H17.554C17.7544 0.829265 17.9529 0.868469 18.1381 0.944959C18.3234 1.02145 18.4917 1.13373 18.6335 1.27536C18.7753 1.41699 18.8877 1.5852 18.9644 1.77035C19.0411 1.9555 19.0805 2.15396 19.0804 2.35437V17.554C19.0806 17.7544 19.0413 17.953 18.9648 18.1382C18.8882 18.3234 18.7758 18.4918 18.6341 18.6335C18.4924 18.7753 18.3242 18.8878 18.139 18.9644C17.9538 19.0411 17.7553 19.0805 17.5548 19.0804H2.35436C2.15406 19.0804 1.95571 19.041 1.77067 18.9643C1.58562 18.8876 1.41749 18.7752 1.27589 18.6335C1.13429 18.4919 1.022 18.3237 0.945418 18.1386C0.86884 17.9535 0.829481 17.7551 0.82959 17.5548V2.35437ZM8.0536 7.78814H10.5249V9.02919C10.8817 8.31575 11.7942 7.67366 13.1655 7.67366C15.7944 7.67366 16.4175 9.09473 16.4175 11.7021V16.5319H13.757V12.2961C13.757 10.8111 13.4003 9.97326 12.4944 9.97326C11.2375 9.97326 10.7149 10.8767 10.7149 12.2961V16.5319H8.0536V7.78814ZM3.49089 16.4183H6.1522V7.67366H3.49089V16.4175V16.4183ZM6.53298 4.82155C6.53799 5.04941 6.49745 5.27598 6.41371 5.48796C6.32998 5.69994 6.20475 5.89307 6.04537 6.05599C5.88599 6.21892 5.69568 6.34837 5.48559 6.43675C5.2755 6.52513 5.04988 6.57065 4.82196 6.57065C4.59404 6.57065 4.36842 6.52513 4.15833 6.43675C3.94824 6.34837 3.75793 6.21892 3.59855 6.05599C3.43917 5.89307 3.31394 5.69994 3.23021 5.48796C3.14647 5.27598 3.10593 5.04941 3.11094 4.82155C3.12079 4.37428 3.30539 3.94865 3.62519 3.63581C3.945 3.32297 4.37459 3.14779 4.82196 3.14779C5.26933 3.14779 5.69892 3.32297 6.01873 3.63581C6.33853 3.94865 6.52313 4.37428 6.53298 4.82155Z" fill="white" fill-opacity="0.6"/>
</g>
<defs>
<clipPath id="clip0_90_87">
<rect width="19.91" height="19.91" fill="white"/>
</clipPath>
</defs>
</svg>
