<svg width="20" height="20" viewBox="0 0 20 20" fill="none" xmlns="http://www.w3.org/2000/svg">
<g clip-path="url(#clip0_90_81)">
<path d="M19.6139 4.09568C18.9212 4.40263 18.177 4.61003 17.3947 4.70377C18.2019 4.22078 18.8058 3.46061 19.0937 2.5651C18.3353 3.01556 17.5054 3.33263 16.6398 3.50253C16.0578 2.88106 15.2868 2.46914 14.4467 2.33072C13.6065 2.19231 12.7442 2.33514 11.9935 2.73704C11.2429 3.13894 10.6459 3.77743 10.2953 4.55337C9.94468 5.32931 9.86007 6.1993 10.0546 7.02826C8.51793 6.95111 7.01467 6.55171 5.64237 5.85598C4.27007 5.16026 3.0594 4.18375 2.08891 2.98985C1.75708 3.56226 1.56628 4.22593 1.56628 4.93273C1.56591 5.56902 1.7226 6.19556 2.02245 6.75677C2.3223 7.31797 2.75603 7.79649 3.28517 8.14986C2.67151 8.13033 2.07139 7.96452 1.53475 7.66621V7.71599C1.53469 8.6084 1.84339 9.47336 2.40846 10.1641C2.97353 10.8548 3.76017 11.3288 4.63491 11.5055C4.06563 11.6596 3.46879 11.6823 2.88946 11.5719C3.13626 12.3398 3.617 13.0112 4.26439 13.4923C4.91177 13.9734 5.69339 14.24 6.49981 14.2548C5.13086 15.3294 3.44021 15.9123 1.69984 15.9098C1.39155 15.9099 1.08352 15.8919 0.777344 15.8559C2.54392 16.9917 4.60035 17.5945 6.70057 17.5922C13.8101 17.5922 17.6967 11.7038 17.6967 6.59688C17.6967 6.43096 17.6925 6.26339 17.6851 6.09747C18.4411 5.55075 19.0936 4.87375 19.6122 4.09817L19.6139 4.09568Z" fill="white" fill-opacity="0.6"/>
</g>
<defs>
<clipPath id="clip0_90_81">
<rect width="19.91" height="19.91" fill="white"/>
</clipPath>
</defs>
</svg>
