<svg width="17" height="17" viewBox="0 0 17 17" fill="none" xmlns="http://www.w3.org/2000/svg">
<path fill-rule="evenodd" clip-rule="evenodd" d="M5.45061 1.14789C6.23935 1.11158 6.49083 1.10352 8.50001 1.10352C10.5092 1.10352 10.7607 1.11226 11.5487 1.14789C12.3368 1.18353 12.8747 1.30927 13.3454 1.4915C13.8383 1.67776 14.2855 1.96891 14.6553 2.34546C15.0318 2.71462 15.3223 3.1611 15.5079 3.65465C15.6908 4.12534 15.8159 4.66327 15.8522 5.45C15.8885 6.24009 15.8966 6.49157 15.8966 8.50007C15.8966 10.5092 15.8878 10.7607 15.8522 11.5495C15.8165 12.3362 15.6908 12.8741 15.5079 13.3448C15.3223 13.8384 15.0314 14.2857 14.6553 14.6553C14.2855 15.0319 13.8383 15.3224 13.3454 15.508C12.8747 15.6909 12.3368 15.8159 11.5501 15.8522C10.7607 15.8886 10.5092 15.8966 8.50001 15.8966C6.49083 15.8966 6.23935 15.8879 5.45061 15.8522C4.66389 15.8166 4.12595 15.6909 3.65527 15.508C3.16166 15.3224 2.71444 15.0314 2.34473 14.6553C1.96843 14.286 1.67724 13.839 1.49144 13.3455C1.30921 12.8748 1.18414 12.3369 1.14783 11.5501C1.11152 10.76 1.10345 10.5086 1.10345 8.50007C1.10345 6.4909 1.1122 6.23941 1.14783 5.45134C1.18347 4.66327 1.30921 4.12534 1.49144 3.65465C1.67751 3.16116 1.96893 2.71416 2.3454 2.34479C2.71459 1.96858 3.16136 1.67738 3.65459 1.4915C4.12528 1.30927 4.66321 1.18421 5.44994 1.14789H5.45061ZM11.4889 2.47927C10.7089 2.44364 10.4749 2.43624 8.50001 2.43624C6.52513 2.43624 6.29113 2.44364 5.51113 2.47927C4.78963 2.51222 4.39828 2.63258 4.13739 2.73412C3.79244 2.8686 3.54566 3.02796 3.28678 3.28684C3.04138 3.52558 2.85252 3.81622 2.73406 4.13745C2.63252 4.39834 2.51216 4.78969 2.47921 5.51119C2.44358 6.29119 2.43618 6.52519 2.43618 8.50007C2.43618 10.4749 2.44358 10.7089 2.47921 11.4889C2.51216 12.2104 2.63252 12.6018 2.73406 12.8627C2.8524 13.1834 3.04135 13.4746 3.28678 13.7133C3.52549 13.9587 3.81664 14.1477 4.13739 14.266C4.39828 14.3676 4.78963 14.4879 5.51113 14.5209C6.29113 14.5565 6.52446 14.5639 8.50001 14.5639C10.4756 14.5639 10.7089 14.5565 11.4889 14.5209C12.2104 14.4879 12.6017 14.3676 12.8626 14.266C13.2076 14.1315 13.4544 13.9722 13.7132 13.7133C13.9587 13.4746 14.1476 13.1834 14.266 12.8627C14.3675 12.6018 14.4879 12.2104 14.5208 11.4889C14.5564 10.7089 14.5638 10.4749 14.5638 8.50007C14.5638 6.52519 14.5564 6.29119 14.5208 5.51119C14.4879 4.78969 14.3675 4.39834 14.266 4.13745C14.1315 3.7925 13.9721 3.54572 13.7132 3.28684C13.4745 3.04146 13.1838 2.85261 12.8626 2.73412C12.6017 2.63258 12.2104 2.51222 11.4889 2.47927ZM7.55527 10.7802C8.08288 10.9999 8.67038 11.0295 9.21742 10.8641C9.76447 10.6987 10.2371 10.3485 10.5546 9.8733C10.8722 9.39812 11.0149 8.82745 10.9584 8.25874C10.9019 7.69004 10.6497 7.15858 10.2449 6.75515C9.98687 6.49727 9.67486 6.2998 9.33133 6.17698C8.98781 6.05415 8.62133 6.00902 8.25827 6.04483C7.89521 6.08064 7.54461 6.1965 7.2317 6.38407C6.9188 6.57164 6.65137 6.82626 6.44868 7.12959C6.24598 7.43292 6.11306 7.77742 6.05949 8.13828C6.00592 8.49915 6.03302 8.8674 6.13885 9.21654C6.24468 9.56567 6.42661 9.887 6.67153 10.1574C6.91645 10.4278 7.21827 10.6405 7.55527 10.7802ZM5.8117 5.81176C6.16473 5.45872 6.58384 5.17868 7.0451 4.98762C7.50636 4.79656 8.00074 4.69822 8.50001 4.69822C8.99927 4.69822 9.49365 4.79656 9.95491 4.98762C10.4162 5.17868 10.8353 5.45872 11.1883 5.81176C11.5414 6.16479 11.8214 6.5839 12.0125 7.04516C12.2035 7.50643 12.3019 8.0008 12.3019 8.50007C12.3019 8.99933 12.2035 9.49371 12.0125 9.95497C11.8214 10.4162 11.5414 10.8353 11.1883 11.1884C10.4753 11.9014 9.50832 12.3019 8.50001 12.3019C7.49169 12.3019 6.52468 11.9014 5.8117 11.1884C5.09871 10.4754 4.69816 9.50838 4.69816 8.50007C4.69816 7.49176 5.09871 6.52474 5.8117 5.81176ZM13.145 5.26441C13.2325 5.18189 13.3026 5.08265 13.351 4.97257C13.3994 4.86249 13.4253 4.74381 13.4271 4.62355C13.4288 4.5033 13.4064 4.38392 13.3612 4.27247C13.316 4.16103 13.2489 4.05979 13.1638 3.97475C13.0788 3.88971 12.9776 3.82259 12.8661 3.77738C12.7547 3.73217 12.6353 3.70978 12.515 3.71153C12.3948 3.71328 12.2761 3.73915 12.166 3.78759C12.0559 3.83603 11.9567 3.90607 11.8742 3.99355C11.7137 4.16369 11.6258 4.38968 11.6292 4.62355C11.6326 4.85743 11.727 5.08076 11.8924 5.24615C12.0578 5.41154 12.2812 5.50596 12.515 5.50937C12.7489 5.51278 12.9749 5.42491 13.145 5.26441Z" fill="white" fill-opacity="0.6"/>
</svg>
