<svg width="19" height="19" viewBox="0 0 19 19" fill="none" xmlns="http://www.w3.org/2000/svg">
<path fill-rule="evenodd" clip-rule="evenodd" d="M17.5311 0.0889229C17.6171 0.142116 17.6881 0.216396 17.7373 0.304719C17.7866 0.393043 17.8125 0.492482 17.8125 0.59361V18.4061C17.8125 18.5636 17.7499 18.7146 17.6386 18.826C17.5272 18.9373 17.3762 18.9999 17.2188 18.9999H13.6562C13.4988 18.9999 13.3478 18.9373 13.2364 18.826C13.1251 18.7146 13.0625 18.5636 13.0625 18.4061V16.6249H11.875V18.4061C11.875 18.5636 11.8124 18.7146 11.7011 18.826C11.5897 18.9373 11.4387 18.9999 11.2812 18.9999H0.59375C0.436278 18.9999 0.285255 18.9373 0.173905 18.826C0.0625556 18.7146 0 18.5636 0 18.4061V11.8749C9.45805e-05 11.7503 0.0393634 11.6289 0.112248 11.5279C0.185133 11.4269 0.287943 11.3513 0.406125 11.312L7.125 9.07236V5.34361C7.125 5.23344 7.15566 5.12543 7.21354 5.03169C7.27143 4.93795 7.35425 4.86216 7.45275 4.8128L16.9527 0.0627979C17.0434 0.0174423 17.1441 -0.00396792 17.2453 0.000605008C17.3465 0.00517793 17.4449 0.0355819 17.5311 0.0889229ZM7.125 10.324L1.1875 12.3024V17.8124H7.125V10.324ZM8.3125 17.8124H10.6875V16.0311C10.6875 15.8736 10.7501 15.7226 10.8614 15.6113C10.9728 15.4999 11.1238 15.4374 11.2812 15.4374H13.6562C13.8137 15.4374 13.9647 15.4999 14.0761 15.6113C14.1874 15.7226 14.25 15.8736 14.25 16.0311V17.8124H16.625V1.5543L8.3125 5.71055V17.8124Z" fill="white" fill-opacity="0.6"/>
<path d="M2.375 13.0625H3.5625V14.25H2.375V13.0625ZM4.75 13.0625H5.9375V14.25H4.75V13.0625ZM2.375 15.4375H3.5625V16.625H2.375V15.4375ZM4.75 15.4375H5.9375V16.625H4.75V15.4375ZM9.5 10.6875H10.6875V11.875H9.5V10.6875ZM11.875 10.6875H13.0625V11.875H11.875V10.6875ZM9.5 13.0625H10.6875V14.25H9.5V13.0625ZM11.875 13.0625H13.0625V14.25H11.875V13.0625ZM14.25 10.6875H15.4375V11.875H14.25V10.6875ZM14.25 13.0625H15.4375V14.25H14.25V13.0625ZM9.5 8.3125H10.6875V9.5H9.5V8.3125ZM11.875 8.3125H13.0625V9.5H11.875V8.3125ZM14.25 8.3125H15.4375V9.5H14.25V8.3125ZM9.5 5.9375H10.6875V7.125H9.5V5.9375ZM11.875 5.9375H13.0625V7.125H11.875V5.9375ZM14.25 5.9375H15.4375V7.125H14.25V5.9375ZM14.25 3.5625H15.4375V4.75H14.25V3.5625Z" fill="white" fill-opacity="0.6"/>
</svg>
