<svg width="35" height="35" viewBox="0 0 35 35" fill="none" xmlns="http://www.w3.org/2000/svg">
<path d="M24.3056 3.88892H10.6944C10.1787 3.88892 9.68417 4.09378 9.31951 4.45843C8.95486 4.82308 8.75 5.31766 8.75 5.83336V29.1667C8.75 29.6824 8.95486 30.177 9.31951 30.5416C9.68417 30.9063 10.1787 31.1111 10.6944 31.1111H24.3056C24.8213 31.1111 25.3158 30.9063 25.6805 30.5416C26.0451 30.177 26.25 29.6824 26.25 29.1667V5.83336C26.25 5.31766 26.0451 4.82308 25.6805 4.45843C25.3158 4.09378 24.8213 3.88892 24.3056 3.88892ZM10.6944 5.83336H24.3056V23.3334H10.6944V5.83336ZM10.6944 29.1667V25.2778H24.3056V29.1667H10.6944Z" fill="#5C85A1"/>
<path d="M16.5278 26.25H18.4722V28.1944H16.5278V26.25Z" fill="black"/>
</svg>
