<svg width="32" height="17" viewBox="0 0 32 17" fill="none" xmlns="http://www.w3.org/2000/svg">
<path d="M3.3196 0.49712C2.48958 -0.231677 1.22592 -0.14962 0.49712 0.680398C-0.231677 1.51042 -0.14962 2.77408 0.680398 3.50288L3.3196 0.49712ZM14.3401 15.4967L15.8429 16.8163L18.4822 13.8106L16.9793 12.491L14.3401 15.4967ZM0.680398 3.50288L14.3401 15.4967L16.9793 12.491L3.3196 0.49712L0.680398 3.50288Z" fill="white"/>
<path d="M28.6804 0.49712C29.5104 -0.231677 30.7741 -0.14962 31.5029 0.680398C32.2317 1.51042 32.1496 2.77408 31.3196 3.50288L28.6804 0.49712ZM17.6599 15.4967L16.1571 16.8163L13.5178 13.8106L15.0207 12.491L17.6599 15.4967ZM31.3196 3.50288L17.6599 15.4967L15.0207 12.491L28.6804 0.49712L31.3196 3.50288Z" fill="white"/>
</svg>
