<svg width="29" height="29" viewBox="0 0 29 29" fill="none" xmlns="http://www.w3.org/2000/svg">
<path d="M14.5 2.71875C13.9345 2.71875 13.369 2.91178 12.8869 3.25706L11.3825 4.30469L9.65702 4.53125H9.62983L9.60083 4.55844C9.03343 4.68617 8.51394 4.97234 8.10277 5.38368C7.69159 5.79501 7.40562 6.31461 7.27811 6.88206L7.25092 6.90925V6.93825L7.02436 8.69456L5.97674 10.0539L5.94774 10.0811V10.1101C5.31517 11.1233 5.28617 12.4301 5.97674 13.3953L7.05064 14.8988L7.33521 16.4557L4.41708 20.9027L3.48364 22.2892H7.81642L8.86405 24.7252L9.51655 26.284L10.45 24.8675L13.3119 20.5628C14.0786 20.88 14.9486 20.9072 15.6899 20.5628L18.551 24.8675L19.4844 26.2813L20.1369 24.7225L21.1836 22.2883H25.5164L24.583 20.8999L21.75 16.5962L21.9766 14.8969L23.0242 13.3962L23.0532 13.369V13.3418C23.6858 12.3268 23.7148 11.0508 23.0242 10.0838L21.9766 8.58219L21.6367 6.88206H21.6639C21.6639 6.85941 21.6395 6.84581 21.6367 6.82497C21.4736 5.6405 20.5338 4.67716 19.3439 4.53216H19.3149L17.6157 4.30559L16.114 3.25797C15.6453 2.9145 15.0811 2.72599 14.5 2.71875ZM14.5 4.55844C14.7085 4.55844 14.9151 4.62187 15.0664 4.73062L16.6796 5.89063L16.8789 6.032L17.1055 6.061L19.0884 6.34375H19.1156C19.5216 6.38906 19.8079 6.67453 19.8523 7.08053V7.13672L20.2212 9.14859L20.2484 9.34525L20.3906 9.51563L21.5506 11.1287C21.7681 11.4323 21.7953 11.9389 21.5235 12.3758L20.3906 13.9617L20.2493 14.1611L20.2203 14.3876L19.9375 16.3687V16.3959C19.9234 16.5377 19.8749 16.674 19.7961 16.7928L19.739 16.8218V16.8508C19.604 17.012 19.411 17.1136 19.2016 17.1336H19.1455L17.0792 17.5024L16.8526 17.5296L16.6805 17.6719L15.0673 18.8319C14.7655 19.0494 14.23 19.0766 13.7931 18.8047L12.3196 17.6719L12.1492 17.5305L11.8955 17.5015L9.91167 17.2188H9.88267C9.75442 17.2083 9.63067 17.1666 9.52217 17.0975C9.41367 17.0283 9.3237 16.9337 9.26008 16.8218C9.19931 16.7175 9.16046 16.6018 9.14589 16.482V16.4258L8.77796 14.3595L8.74896 14.133L8.60758 13.9608L7.44758 12.3477C7.23008 12.0459 7.20289 11.5103 7.47477 11.0735L8.60758 9.59991L8.74896 9.42953L8.77614 9.17578L9.03261 7.27719C9.03442 7.2645 9.05617 7.26359 9.0598 7.25C9.11664 7.03201 9.23058 6.83313 9.38988 6.67383C9.54917 6.51454 9.74806 6.40059 9.96605 6.34375C9.97964 6.34013 9.98055 6.31838 9.99324 6.31656L11.8918 6.061L12.1184 6.032L12.3178 5.89063L13.9309 4.73062C14.0822 4.62187 14.2898 4.55844 14.4973 4.55844H14.5ZM20.7586 18.3516L22.147 20.4758H19.9647L19.7381 21.0422L19.1165 22.4859L17.1907 19.5406L17.6148 19.2288L19.3983 18.9162V18.9433C19.421 18.9433 19.4346 18.9189 19.4554 18.9162C19.932 18.8471 20.3814 18.6515 20.7568 18.3498L20.7586 18.3516ZM8.24146 18.3788C8.62842 18.7249 9.1178 18.966 9.65702 19.0313H9.68421L11.4133 19.2578L11.8094 19.5696L9.88449 22.4859L9.26189 21.0422L9.03533 20.4749H6.85127L8.23964 18.3788H8.24146Z" fill="white" fill-opacity="0.6"/>
</svg>
