<svg width="35" height="35" viewBox="0 0 35 35" fill="none" xmlns="http://www.w3.org/2000/svg">
<path d="M10.2083 32.0833H24.7916" stroke="#F9FF39" stroke-width="1.5" stroke-linecap="round" stroke-linejoin="round"/>
<path d="M2.91663 24.7916V5.83329C2.91663 5.05974 3.22392 4.31788 3.7709 3.7709C4.31788 3.22392 5.05974 2.91663 5.83329 2.91663H29.1666C29.9402 2.91663 30.682 3.22392 31.229 3.7709C31.776 4.31788 32.0833 5.05974 32.0833 5.83329V24.7916C32.0833 25.5652 31.776 26.307 31.229 26.854C30.682 27.401 29.9402 27.7083 29.1666 27.7083H5.83329C5.05974 27.7083 4.31788 27.401 3.7709 26.854C3.22392 26.307 2.91663 25.5652 2.91663 24.7916Z" stroke="#F9FF39" stroke-width="1.5"/>
<path d="M13.125 15.3124L16.0417 18.2291L21.875 12.3958" stroke="#F9FF39" stroke-width="1.5" stroke-linecap="round" stroke-linejoin="round"/>
</svg>
